<svg id="Layer_2" data-name="Layer 2" xmlns="http://www.w3.org/2000/svg" xmlns:xlink="http://www.w3.org/1999/xlink" viewBox="0 0 263.35 263.5"><defs><style>.cls-1{fill:url(#linear-gradient);}.cls-2{fill:url(#linear-gradient-2);}.cls-3{fill:url(#linear-gradient-3);}.cls-4{fill:url(#linear-gradient-4);}.cls-5{fill:url(#linear-gradient-5);}.cls-6{fill:url(#linear-gradient-6);}.cls-7{fill:#9270b1;}</style><linearGradient id="linear-gradient" x1="70.66" y1="66.65" x2="192.51" y2="196.53" gradientUnits="userSpaceOnUse"><stop offset="0.08" stop-color="#72492c"/><stop offset="0.31" stop-color="#bf7644"/><stop offset="0.7" stop-color="#bf7644"/><stop offset="0.9" stop-color="#72492c"/></linearGradient><linearGradient id="linear-gradient-2" x1="77.14" y1="166.46" x2="184.71" y2="97.28" gradientUnits="userSpaceOnUse"><stop offset="0.16" stop-color="#72492c" stop-opacity="0"/><stop offset="0.31" stop-opacity="0.2"/><stop offset="0.7" stop-opacity="0.3"/><stop offset="0.84" stop-color="#72492c" stop-opacity="0"/></linearGradient><linearGradient id="linear-gradient-3" x1="39" y1="131.5" x2="223" y2="131.5" gradientUnits="userSpaceOnUse"><stop offset="0.14" stop-color="#342d3f"/><stop offset="0.28" stop-color="#6d5a80"/><stop offset="0.74" stop-color="#6d5a80"/><stop offset="0.85" stop-color="#342d3f"/></linearGradient><linearGradient id="linear-gradient-4" x1="98.3" y1="51.48" x2="163.78" y2="212.71" gradientUnits="userSpaceOnUse"><stop offset="0.21" stop-color="#9270b1" stop-opacity="0"/><stop offset="0.39" stop-color="#9270b1"/><stop offset="0.61" stop-color="#9270b1"/><stop offset="0.87" stop-color="#9270b1" stop-opacity="0"/></linearGradient><linearGradient id="linear-gradient-5" x1="2.86" y1="93" x2="102.86" y2="93" gradientUnits="userSpaceOnUse"><stop offset="0.23" stop-color="#f49657"/><stop offset="0.53" stop-color="#80502f"/><stop offset="0.86" stop-color="#f49657"/></linearGradient><linearGradient id="linear-gradient-6" x1="105.07" y1="169.78" x2="290.93" y2="169.78" gradientUnits="userSpaceOnUse"><stop offset="0.37" stop-color="#f49657"/><stop offset="0.53" stop-color="#80502f"/><stop offset="0.72" stop-color="#f49657"/></linearGradient></defs><title>logo1</title><polyline class="cls-1" points="0 131 262.72 77.15 263 132 0.28 185.85 0.28 131.5"/><polyline class="cls-2" points="0 131 262.72 77.15 263 132 0.28 185.85 0.28 131.5"/><polyline class="cls-3" points="223 225 77 0 39 39 186 263"/><polyline class="cls-4" points="223 225 77 0 39 39 186 263"/><polyline class="cls-5" points="0 186 185.85 0.28 131.5 0.28 131 0 0 131"/><polyline class="cls-6" points="263.35 76.78 77.5 262.5 131.85 262.5 132.35 262.78 263.35 131.78"/><polyline class="cls-7" points="185.5 263.5 185.5 0.5 185.35 0.78 223.78 39.22 223.5 39.5 223.5 224.5"/><polyline class="cls-7" points="77 0 77 263 77.15 262.72 38.72 224.28 39 224 39 39"/></svg>